<?xml version="1.0" encoding="UTF-8"?>
<svg version="1.1" xmlns="http://www.w3.org/2000/svg" width="423" height="179">
<path d="M0 0 C0.67417969 0.50144531 1.34835937 1.00289062 2.04296875 1.51953125 C18.23568463 14.37736285 29.17433407 35.64029509 32 56 C33.97251645 82.61579263 29.03114212 105.47737212 12.015625 126.4453125 C-2.72302556 143.53587538 -22.55466995 154.91586313 -45 158 C-71.98714436 159.9378377 -95.73500844 155.47382613 -117 138 C-117.76441406 137.39800781 -118.52882813 136.79601562 -119.31640625 136.17578125 C-135.4882474 122.76018433 -146.70802351 101.86123043 -149 81 C-150.47064155 54.58197623 -145.76014373 31.43278672 -128 11 C-113.74650112 -4.69556842 -96.71443588 -14.66612866 -76 -19 C-75.08992188 -19.19078125 -74.17984375 -19.3815625 -73.2421875 -19.578125 C-46.21301975 -23.09517333 -21.50133519 -16.45293117 0 0 Z " fill="#CDE0F1" transform="translate(391,20)"/>
<path d="M0 0 C0.67417969 0.50144531 1.34835938 1.00289062 2.04296875 1.51953125 C18.23568463 14.37736285 29.17433407 35.64029509 32 56 C33.97251645 82.61579263 29.03114212 105.47737212 12.015625 126.4453125 C-2.72302556 143.53587538 -22.55466995 154.91586313 -45 158 C-71.98714436 159.9378377 -95.73500844 155.47382613 -117 138 C-117.76441406 137.39800781 -118.52882813 136.79601562 -119.31640625 136.17578125 C-135.4882474 122.76018433 -146.70802351 101.86123043 -149 81 C-150.47064155 54.58197623 -145.76014373 31.43278672 -128 11 C-113.74650112 -4.69556842 -96.71443588 -14.66612866 -76 -19 C-75.08992188 -19.19078125 -74.17984375 -19.3815625 -73.2421875 -19.578125 C-46.21301975 -23.09517333 -21.50133519 -16.45293117 0 0 Z " fill="#CDE0F1" transform="translate(149,20)"/>
<path d="M0 0 C24.92280972 0 46.48901901 10.03738706 64.375 27 C79.49251762 42.93980938 88 64.19082777 88 86 C77.77 86 67.54 86 57 86 C56.5875 83.545625 56.175 81.09125 55.75 78.5625 C54.60031574 72.235101 53.13768485 66.66496684 50 61 C49.59136719 60.20464844 49.18273437 59.40929688 48.76171875 58.58984375 C41.30661392 45.0026527 29.93591394 36.67549326 15.4453125 31.859375 C10.36504728 30.59218866 5.16467946 29.86077991 0 29 C0 19.43 0 9.86 0 0 Z " fill="#CDE0F0" transform="translate(333,2)"/>
<path d="M0 0 C24.92280972 0 46.48901901 10.03738706 64.375 27 C79.49251762 42.93980938 88 64.19082777 88 86 C77.77 86 67.54 86 57 86 C56.5875 83.545625 56.175 81.09125 55.75 78.5625 C54.60031574 72.235101 53.13768485 66.66496684 50 61 C49.59136719 60.20464844 49.18273437 59.40929688 48.76171875 58.58984375 C41.30661392 45.0026527 29.93591394 36.67549326 15.4453125 31.859375 C10.36504728 30.59218866 5.16467946 29.86077991 0 29 C0 19.43 0 9.86 0 0 Z " fill="#CDE0F0" transform="translate(91,2)"/>
<path d="M0 0 C0 9.57 0 19.14 0 29 C-4.0528125 29.7734375 -4.0528125 29.7734375 -8.1875 30.5625 C-24.33802957 33.99443277 -37.35503045 42.43436436 -46.47265625 56.421875 C-52.19904285 66.08789841 -54.21495564 75.00788473 -56 86 C-66.23 86 -76.46 86 -87 86 C-87 78.88344194 -86.8156718 73.51159348 -85 66.875 C-84.77852295 66.05950684 -84.5570459 65.24401367 -84.32885742 64.40380859 C-77.85828784 41.92387497 -63.54985661 23.65284163 -43.3203125 11.81640625 C-29.49884401 4.25524996 -15.82887227 0 0 0 Z " fill="#CDDFF0" transform="translate(331,2)"/>
<path d="M0 0 C0 9.57 0 19.14 0 29 C-4.0528125 29.7734375 -4.0528125 29.7734375 -8.1875 30.5625 C-24.33802957 33.99443277 -37.35503045 42.43436436 -46.47265625 56.421875 C-52.19904285 66.08789841 -54.21495564 75.00788473 -56 86 C-66.23 86 -76.46 86 -87 86 C-87 78.88344194 -86.8156718 73.51159348 -85 66.875 C-84.77852295 66.05950684 -84.5570459 65.24401367 -84.32885742 64.40380859 C-77.85828784 41.92387497 -63.54985661 23.65284163 -43.3203125 11.81640625 C-29.49884401 4.25524996 -15.82887227 0 0 0 Z " fill="#CDDFF0" transform="translate(89,2)"/>
<path d="M0 0 C10.23 0 20.46 0 31 0 C31 6.3590287 30.80533848 11.3250338 29.3125 17.3125 C29.04240112 18.41597778 29.04240112 18.41597778 28.7668457 19.54174805 C24.47583995 36.35567192 16.13422673 49.83115351 4 62 C3.29230469 62.73089844 2.58460938 63.46179688 1.85546875 64.21484375 C-8.95882312 74.65694202 -22.68501412 80.25608062 -37 84 C-38.29550781 84.36738281 -38.29550781 84.36738281 -39.6171875 84.7421875 C-45.70415092 86.32349828 -50.33329241 86 -57 86 C-57 76.76 -57 67.52 -57 58 C-54.6075 57.608125 -52.215 57.21625 -49.75 56.8125 C-34.48642701 54.04266842 -21.25511535 47.51538173 -11.84765625 34.8046875 C-4.2351074 23.24906366 -1.77289019 13.55739556 0 0 Z " fill="#CDE0F1" transform="translate(390,90)"/>
<path d="M0 0 C10.23 0 20.46 0 31 0 C31 6.3590287 30.80533848 11.3250338 29.3125 17.3125 C29.04240112 18.41597778 29.04240112 18.41597778 28.7668457 19.54174805 C24.47583995 36.35567192 16.13422673 49.83115351 4 62 C3.29230469 62.73089844 2.58460938 63.46179688 1.85546875 64.21484375 C-8.95882312 74.65694202 -22.68501412 80.25608062 -37 84 C-38.29550781 84.36738281 -38.29550781 84.36738281 -39.6171875 84.7421875 C-45.70415092 86.32349828 -50.33329241 86 -57 86 C-57 76.76 -57 67.52 -57 58 C-54.6075 57.608125 -52.215 57.21625 -49.75 56.8125 C-34.48642701 54.04266842 -21.25511535 47.51538173 -11.84765625 34.8046875 C-4.2351074 23.24906366 -1.77289019 13.55739556 0 0 Z " fill="#CDE0F1" transform="translate(148,90)"/>
<path d="M0 0 C10.23 0 20.46 0 31 0 C31.33 2.475 31.66 4.95 32 7.5 C34.48734792 23.06144205 42.5852625 37.55657394 55.18359375 47.11328125 C65.2591375 53.86291736 75.23062742 56.15783733 87 58 C87 67.24 87 76.48 87 86 C61.92548929 85.57500829 42.02389655 76.4658709 23.8125 59.125 C13.08719084 47.99131234 6.00081382 33.96269859 2 19.125 C1.7922998 18.36517822 1.58459961 17.60535645 1.37060547 16.82250977 C-0.10763867 10.85715448 0 6.46191869 0 0 Z " fill="#CDE0F1" transform="translate(244,90)"/>
<path d="M0 0 C10.23 0 20.46 0 31 0 C31.33 2.475 31.66 4.95 32 7.5 C34.48734792 23.06144205 42.5852625 37.55657394 55.18359375 47.11328125 C65.2591375 53.86291736 75.23062742 56.15783733 87 58 C87 67.24 87 76.48 87 86 C61.92548929 85.57500829 42.02389655 76.4658709 23.8125 59.125 C13.08719084 47.99131234 6.00081382 33.96269859 2 19.125 C1.7922998 18.36517822 1.58459961 17.60535645 1.37060547 16.82250977 C-0.10763867 10.85715448 0 6.46191869 0 0 Z " fill="#CDE0F1" transform="translate(2,90)"/>
<path d="M0 0 C0.67417969 0.50144531 1.34835937 1.00289062 2.04296875 1.51953125 C18.23568463 14.37736285 29.17433407 35.64029509 32 56 C33.97251645 82.61579263 29.03114212 105.47737212 12.015625 126.4453125 C-2.72302556 143.53587538 -22.55466995 154.91586313 -45 158 C-71.98714436 159.9378377 -95.73500844 155.47382613 -117 138 C-117.76441406 137.39800781 -118.52882813 136.79601562 -119.31640625 136.17578125 C-135.4882474 122.76018433 -146.70802351 101.86123043 -149 81 C-150.47064155 54.58197623 -145.76014373 31.43278672 -128 11 C-113.74650112 -4.69556842 -96.71443588 -14.66612866 -76 -19 C-75.08992188 -19.19078125 -74.17984375 -19.3815625 -73.2421875 -19.578125 C-46.21301975 -23.09517333 -21.50133519 -16.45293117 0 0 Z M-58 -18 C-58 -8.43 -58 1.14 -58 11 C-55.751875 11.4125 -53.50375 11.825 -51.1875 12.25 C-35.43072771 15.35215725 -21.77446215 21.87819998 -12.3125 35.4140625 C-10.77355011 37.89946657 -9.36383277 40.41482444 -8 43 C-7.61972656 43.68449219 -7.23945313 44.36898437 -6.84765625 45.07421875 C-3.2133389 52.27428142 -2.32462941 60.11845503 -1 68 C9.23 68 19.46 68 30 68 C30 51.88734723 26.02564737 38.82262483 18 25 C17.49339844 24.12730469 16.98679687 23.25460938 16.46484375 22.35546875 C3.46568336 1.67992395 -16.61393253 -10.68916244 -39.953125 -16.125 C-41.30191987 -16.41742165 -42.65085462 -16.70919975 -44 -17 C-44.81984375 -17.20625 -45.6396875 -17.4125 -46.484375 -17.625 C-50.28297823 -18.19125141 -54.15942359 -18 -58 -18 Z M-123.26171875 9.140625 C-134.09189881 20.44974312 -140.73910664 33.65096199 -144.875 48.6875 C-145.09067627 49.45924561 -145.30635254 50.23099121 -145.52856445 51.02612305 C-147.07973476 57.08218529 -147 61.41256466 -147 68 C-136.77 68 -126.54 68 -116 68 C-115.67 65.69 -115.34 63.38 -115 61 C-112.39977041 46.09489249 -104.73922334 31.73334164 -92.28515625 22.76513672 C-81.99681994 15.99160677 -72.19836883 13.21788524 -60 11 C-60 1.43 -60 -8.14 -60 -18 C-84.28701627 -18 -105.79443587 -7.16546652 -123.26171875 9.140625 Z M-99 31 C-99.57492187 31.56460938 -100.14984375 32.12921875 -100.7421875 32.7109375 C-111.07887308 43.69031855 -114.65037418 58.67228707 -114.27734375 73.33984375 C-113.13750417 88.38251545 -106.40920853 103.00432173 -95 113 C-87.69278358 118.66564382 -80.13471721 123.08410426 -71 125 C-70.40058594 125.17917969 -69.80117188 125.35835938 -69.18359375 125.54296875 C-56.45096497 128.20793756 -41.92499886 125.60620061 -30.6875 119.3125 C-16.63011573 110.0032838 -8.12481893 98.00982603 -3.6875 81.75 C-0.49327117 64.85744368 -4.52553168 49.63832738 -13.7109375 35.3359375 C-20.92781554 25.50027672 -31.40080599 18.62240201 -43 15 C-44.10214844 14.64421875 -45.20429688 14.2884375 -46.33984375 13.921875 C-66.06134939 8.95466547 -85.25133608 17.05422261 -99 31 Z M-147 70 C-147 77.11690917 -146.81523593 82.48813159 -145 89.125 C-144.77924805 89.93976807 -144.55849609 90.75453613 -144.33105469 91.59399414 C-138.09875095 113.28266415 -124.01301106 132.83705524 -104.20507812 144.01269531 C-89.59690364 151.97878442 -76.62180518 155.45945349 -60 156 C-60 146.76 -60 137.52 -60 128 C-62.31 127.67 -64.62 127.34 -67 127 C-81.45421988 124.53418303 -94.08846632 117.54503516 -103.0625 105.9375 C-111.06678854 94.41194499 -113.99965908 83.6689963 -116 70 C-126.23 70 -136.46 70 -147 70 Z M-1 70 C-1.33 72.64 -1.66 75.28 -2 78 C-4.39863866 93.77960547 -11.90016924 107.12289037 -24.75 116.75 C-35.23976672 123.63689852 -45.81261088 126.00378971 -58 128 C-58 137.24 -58 146.48 -58 156 C-50.36247968 156 -44.46711504 155.86024319 -37.3125 154 C-36.45599854 153.77997314 -35.59949707 153.55994629 -34.71704102 153.33325195 C-12.6015172 147.28159753 6.29226132 133.08270413 18.06640625 113.40625 C25.8125817 99.76046213 30 85.71507449 30 70 C19.77 70 9.54 70 -1 70 Z " fill="#090A0B" transform="translate(391,20)"/>
<path d="M0 0 C0.67417969 0.50144531 1.34835938 1.00289062 2.04296875 1.51953125 C18.23568463 14.37736285 29.17433407 35.64029509 32 56 C33.97251645 82.61579263 29.03114212 105.47737212 12.015625 126.4453125 C-2.72302556 143.53587538 -22.55466995 154.91586313 -45 158 C-71.98714436 159.9378377 -95.73500844 155.47382613 -117 138 C-117.76441406 137.39800781 -118.52882813 136.79601562 -119.31640625 136.17578125 C-135.4882474 122.76018433 -146.70802351 101.86123043 -149 81 C-150.47064155 54.58197623 -145.76014373 31.43278672 -128 11 C-113.74650112 -4.69556842 -96.71443588 -14.66612866 -76 -19 C-75.08992188 -19.19078125 -74.17984375 -19.3815625 -73.2421875 -19.578125 C-46.21301975 -23.09517333 -21.50133519 -16.45293117 0 0 Z M-58 -18 C-58 -8.43 -58 1.14 -58 11 C-55.751875 11.4125 -53.50375 11.825 -51.1875 12.25 C-35.43072771 15.35215725 -21.77446215 21.87819998 -12.3125 35.4140625 C-10.77355011 37.89946657 -9.36383277 40.41482444 -8 43 C-7.61972656 43.68449219 -7.23945313 44.36898437 -6.84765625 45.07421875 C-3.2133389 52.27428142 -2.32462941 60.11845503 -1 68 C9.23 68 19.46 68 30 68 C30 51.88734723 26.02564737 38.82262483 18 25 C17.49339844 24.12730469 16.98679687 23.25460938 16.46484375 22.35546875 C3.46568336 1.67992395 -16.61393253 -10.68916244 -39.953125 -16.125 C-41.30191987 -16.41742165 -42.65085462 -16.70919975 -44 -17 C-44.81984375 -17.20625 -45.6396875 -17.4125 -46.484375 -17.625 C-50.28297823 -18.19125141 -54.15942359 -18 -58 -18 Z M-123.26171875 9.140625 C-134.09189881 20.44974312 -140.73910664 33.65096199 -144.875 48.6875 C-145.09067627 49.45924561 -145.30635254 50.23099121 -145.52856445 51.02612305 C-147.07973476 57.08218529 -147 61.41256466 -147 68 C-136.77 68 -126.54 68 -116 68 C-115.67 65.69 -115.34 63.38 -115 61 C-112.39977041 46.09489249 -104.73922334 31.73334164 -92.28515625 22.76513672 C-81.99681994 15.99160677 -72.19836883 13.21788524 -60 11 C-60 1.43 -60 -8.14 -60 -18 C-84.28701627 -18 -105.79443587 -7.16546652 -123.26171875 9.140625 Z M-99 31 C-99.57492188 31.56460938 -100.14984375 32.12921875 -100.7421875 32.7109375 C-111.07887308 43.69031855 -114.65037418 58.67228707 -114.27734375 73.33984375 C-113.13750417 88.38251545 -106.40920853 103.00432173 -95 113 C-87.69278358 118.66564382 -80.13471721 123.08410426 -71 125 C-70.40058594 125.17917969 -69.80117187 125.35835938 -69.18359375 125.54296875 C-56.45096497 128.20793756 -41.92499886 125.60620061 -30.6875 119.3125 C-16.63011573 110.0032838 -8.12481893 98.00982603 -3.6875 81.75 C-0.49327117 64.85744368 -4.52553168 49.63832738 -13.7109375 35.3359375 C-20.92781554 25.50027672 -31.40080599 18.62240201 -43 15 C-44.10214844 14.64421875 -45.20429687 14.2884375 -46.33984375 13.921875 C-66.06134939 8.95466547 -85.25133608 17.05422261 -99 31 Z M-147 70 C-147 77.11690917 -146.81523593 82.48813159 -145 89.125 C-144.77924805 89.93976807 -144.55849609 90.75453613 -144.33105469 91.59399414 C-138.09875095 113.28266415 -124.01301106 132.83705524 -104.20507812 144.01269531 C-89.59690364 151.97878442 -76.62180518 155.45945349 -60 156 C-60 146.76 -60 137.52 -60 128 C-62.31 127.67 -64.62 127.34 -67 127 C-81.45421988 124.53418303 -94.08846632 117.54503516 -103.0625 105.9375 C-111.06678854 94.41194499 -113.99965908 83.6689963 -116 70 C-126.23 70 -136.46 70 -147 70 Z M-1 70 C-1.33 72.64 -1.66 75.28 -2 78 C-4.39863866 93.77960547 -11.90016924 107.12289037 -24.75 116.75 C-35.23976672 123.63689852 -45.81261088 126.00378971 -58 128 C-58 137.24 -58 146.48 -58 156 C-50.36247968 156 -44.46711504 155.86024319 -37.3125 154 C-36.45599854 153.77997314 -35.59949707 153.55994629 -34.71704102 153.33325195 C-12.6015172 147.28159753 6.29226132 133.08270413 18.06640625 113.40625 C25.8125817 99.76046213 30 85.71507449 30 70 C19.77 70 9.54 70 -1 70 Z " fill="#090A0B" transform="translate(149,20)"/>
<path d="M0 0 C1.47364014 -0.00809692 1.47364014 -0.00809692 2.97705078 -0.01635742 C8.38424286 0.03667235 12.95078403 0.52802057 18.0625 2.3125 C18.0625 2.9725 18.0625 3.6325 18.0625 4.3125 C12.1225 3.6525 6.1825 2.9925 0.0625 2.3125 C0.0625 11.8825 0.0625 21.4525 0.0625 31.3125 C2.3725 31.3125 4.6825 31.3125 7.0625 31.3125 C20.92440132 34.16782835 31.08685321 39.35367555 41.0625 49.3125 C41.71347656 49.951875 42.36445313 50.59125 43.03515625 51.25 C50.06987006 58.67123655 54.77340913 68.16090939 56.0625 78.3125 C55.4025 79.3025 54.7425 80.2925 54.0625 81.3125 C53.91554688 80.65765625 53.76859375 80.0028125 53.6171875 79.328125 C49.71144697 63.43580145 42.14464184 51.13452768 28.34765625 42.2578125 C24.06336258 39.72085858 19.80889394 37.79478808 15.0625 36.3125 C13.96035156 35.95671875 12.85820312 35.6009375 11.72265625 35.234375 C-1.94959599 31.79077678 -15.83619181 35.05866687 -28.046875 41.515625 C-41.14373734 49.65691781 -50.00670767 62.06928281 -53.75 76.9375 C-54.15781478 78.72647752 -54.55809825 80.51728197 -54.9375 82.3125 C-55.5975 81.6525 -56.2575 80.9925 -56.9375 80.3125 C-56.67060392 74.38994889 -55.23852663 69.81095252 -52.5625 64.5625 C-52.2116333 63.87293213 -51.8607666 63.18336426 -51.49926758 62.47290039 C-44.07815178 48.59584746 -31.86746661 38.44387022 -16.9375 33.3125 C-11.81296579 31.96798203 -7.25558491 31.3125 -1.9375 31.3125 C-1.9375 21.7425 -1.9375 12.1725 -1.9375 2.3125 C-7.54617811 3.25382339 -7.54617811 3.25382339 -13.15454102 4.19702148 C-17.74167031 4.96421951 -22.33045116 5.67555231 -26.9375 6.3125 C-26.6075 5.3225 -26.2775 4.3325 -25.9375 3.3125 C-17.76412173 0.0132792 -8.67911352 0.029671 0 0 Z " fill="#0B0C0D" transform="translate(332.9375,-0.31250000000000006)"/>
<path d="M0 0 C1.47364014 -0.00809692 1.47364014 -0.00809692 2.97705078 -0.01635742 C8.38424286 0.03667235 12.95078403 0.52802057 18.0625 2.3125 C18.0625 2.9725 18.0625 3.6325 18.0625 4.3125 C12.1225 3.6525 6.1825 2.9925 0.0625 2.3125 C0.0625 11.8825 0.0625 21.4525 0.0625 31.3125 C2.3725 31.3125 4.6825 31.3125 7.0625 31.3125 C20.92440132 34.16782835 31.08685321 39.35367555 41.0625 49.3125 C41.71347656 49.951875 42.36445313 50.59125 43.03515625 51.25 C50.06987006 58.67123655 54.77340913 68.16090939 56.0625 78.3125 C55.4025 79.3025 54.7425 80.2925 54.0625 81.3125 C53.91554688 80.65765625 53.76859375 80.0028125 53.6171875 79.328125 C49.71144697 63.43580145 42.14464184 51.13452768 28.34765625 42.2578125 C24.06336258 39.72085858 19.80889394 37.79478808 15.0625 36.3125 C13.96035156 35.95671875 12.85820313 35.6009375 11.72265625 35.234375 C-1.94959599 31.79077678 -15.83619181 35.05866687 -28.046875 41.515625 C-41.14373734 49.65691781 -50.00670767 62.06928281 -53.75 76.9375 C-54.15781478 78.72647752 -54.55809825 80.51728197 -54.9375 82.3125 C-55.5975 81.6525 -56.2575 80.9925 -56.9375 80.3125 C-56.67060392 74.38994889 -55.23852663 69.81095252 -52.5625 64.5625 C-52.2116333 63.87293213 -51.8607666 63.18336426 -51.49926758 62.47290039 C-44.07815178 48.59584746 -31.86746661 38.44387022 -16.9375 33.3125 C-11.81296579 31.96798203 -7.25558491 31.3125 -1.9375 31.3125 C-1.9375 21.7425 -1.9375 12.1725 -1.9375 2.3125 C-7.54617811 3.25382339 -7.54617811 3.25382339 -13.15454102 4.19702148 C-17.74167031 4.96421951 -22.33045116 5.67555231 -26.9375 6.3125 C-26.6075 5.3225 -26.2775 4.3325 -25.9375 3.3125 C-17.76412173 0.0132792 -8.67911352 0.029671 0 0 Z " fill="#0B0C0D" transform="translate(90.9375,-0.31250000000000006)"/>
<path d="M0 0 C3.1875 2.1875 3.1875 2.1875 5.1875 5.1875 C5.63206411 9.78132919 5.84338803 12.07006113 3.5 16.0625 C-0.58390326 19.81527597 -4.24670892 20.6552147 -9.81640625 20.5078125 C-13.91077333 19.85079078 -16.7825362 17.59199609 -19.1875 14.3125 C-20.06401896 11.33233554 -20.24672592 9.28911374 -19.8125 6.1875 C-14.71525696 -1.17518439 -8.55152743 -4.64989304 0 0 Z " fill="#C8DBEB" transform="translate(340.8125,80.8125)"/>
<path d="M0 0 C3.1875 2.1875 3.1875 2.1875 5.1875 5.1875 C5.63206411 9.78132919 5.84338803 12.07006113 3.5 16.0625 C-0.58390326 19.81527597 -4.24670892 20.6552147 -9.81640625 20.5078125 C-13.91077333 19.85079078 -16.7825362 17.59199609 -19.1875 14.3125 C-20.06401896 11.33233554 -20.24672592 9.28911374 -19.8125 6.1875 C-14.71525696 -1.17518439 -8.55152743 -4.64989304 0 0 Z " fill="#C8DBEB" transform="translate(98.8125,80.8125)"/>
<path d="M0 0 C19.7518324 1.8904394 39.03573872 14.34903671 51.6875 29.25 C65.55131427 47.09966088 72.45200715 65.06150637 72.125 87.625 C72.11597656 88.81996094 72.10695313 90.01492187 72.09765625 91.24609375 C72.07431077 94.16427834 72.04156656 97.08202776 72 100 C70.515 100.495 70.515 100.495 69 101 C69.33 96.71 69.66 92.42 70 88 C59.77 88 49.54 88 39 88 C38.505 89.98 38.505 89.98 38 92 C36.49843126 88.99686252 36.90718796 86.20932478 36.9375 82.875 C36.94652344 81.59367187 36.95554687 80.31234375 36.96484375 78.9921875 C36.97644531 78.00476563 36.98804688 77.01734375 37 76 C39 79 39 79 39 86 C49.23 86 59.46 86 70 86 C66.48459933 58.98692118 57.96187959 36.51721348 36 19 C26.04895714 11.77364744 15.10627038 6.30003143 3.046875 3.73828125 C2.37140625 3.49464844 1.6959375 3.25101562 1 3 C0.67 2.01 0.34 1.02 0 0 Z " fill="#070809" transform="translate(351,2)"/>
<path d="M0 0 C19.7518324 1.8904394 39.03573872 14.34903671 51.6875 29.25 C65.55131427 47.09966088 72.45200715 65.06150637 72.125 87.625 C72.11597656 88.81996094 72.10695313 90.01492187 72.09765625 91.24609375 C72.07431077 94.16427834 72.04156656 97.08202776 72 100 C70.515 100.495 70.515 100.495 69 101 C69.33 96.71 69.66 92.42 70 88 C59.77 88 49.54 88 39 88 C38.505 89.98 38.505 89.98 38 92 C36.49843126 88.99686252 36.90718796 86.20932478 36.9375 82.875 C36.94652344 81.59367187 36.95554688 80.31234375 36.96484375 78.9921875 C36.97644531 78.00476563 36.98804688 77.01734375 37 76 C39 79 39 79 39 86 C49.23 86 59.46 86 70 86 C66.48459933 58.98692118 57.96187959 36.51721348 36 19 C26.04895714 11.77364744 15.10627038 6.30003143 3.046875 3.73828125 C2.37140625 3.49464844 1.6959375 3.25101562 1 3 C0.67 2.01 0.34 1.02 0 0 Z " fill="#070809" transform="translate(109,2)"/>
<path d="M0 0 C0 0.66 0 1.32 0 2 C-0.77694214 2.34611328 -0.77694214 2.34611328 -1.56958008 2.69921875 C-11.76237562 7.27811525 -21.35926254 11.790034 -30 19 C-31.25296875 19.99386719 -31.25296875 19.99386719 -32.53125 21.0078125 C-43.52805616 30.20575839 -50.62419808 41.8445823 -56 55 C-56.66 54.67 -57.32 54.34 -58 54 C-55.70470991 38.28162104 -41.43187287 23.81177225 -29.703125 14.09765625 C-22.15012229 8.50894116 -9.59969658 0 0 0 Z " fill="#070808" transform="translate(306,4)"/>
<path d="M0 0 C0 0.66 0 1.32 0 2 C-0.77694214 2.34611328 -0.77694214 2.34611328 -1.56958008 2.69921875 C-11.76237562 7.27811525 -21.35926254 11.790034 -30 19 C-31.25296875 19.99386719 -31.25296875 19.99386719 -32.53125 21.0078125 C-43.52805616 30.20575839 -50.62419808 41.8445823 -56 55 C-56.66 54.67 -57.32 54.34 -58 54 C-55.70470991 38.28162104 -41.43187287 23.81177225 -29.703125 14.09765625 C-22.15012229 8.50894116 -9.59969658 0 0 0 Z " fill="#070808" transform="translate(64,4)"/>
<path d="M0 0 C2 2 2 2 2.0390625 4.6953125 C0.12987162 20.50917662 -7.10887437 33.72208926 -19.37109375 43.984375 C-27.54934763 50.10825151 -36.7307335 54.40754232 -47 55 C-47.33 54.34 -47.66 53.68 -48 53 C-47.03320312 52.78085938 -46.06640625 52.56171875 -45.0703125 52.3359375 C-30.56246574 48.87759566 -17.79524403 42.1389961 -9.625 29.0625 C-4.52432382 19.70886565 -1.9877291 10.45063633 0 0 Z " fill="#181A1C" transform="translate(388,92)"/>
<path d="M0 0 C2 2 2 2 2.0390625 4.6953125 C0.12987162 20.50917662 -7.10887437 33.72208926 -19.37109375 43.984375 C-27.54934763 50.10825151 -36.7307335 54.40754232 -47 55 C-47.33 54.34 -47.66 53.68 -48 53 C-47.03320312 52.78085938 -46.06640625 52.56171875 -45.0703125 52.3359375 C-30.56246574 48.87759566 -17.79524403 42.1389961 -9.625 29.0625 C-4.52432382 19.70886565 -1.9877291 10.45063633 0 0 Z " fill="#181A1C" transform="translate(146,92)"/>
<path d="M0 0 C0 0.33 0 0.66 0 1 C-0.72703125 1.14695313 -1.4540625 1.29390625 -2.203125 1.4453125 C-17.3606637 4.8266096 -29.69371566 12.02585124 -38.6953125 24.91796875 C-43.50960838 32.60066248 -46.12751277 40.13993848 -48 49 C-48.66 48.34 -49.32 47.68 -50 47 C-49.73310392 41.07744889 -48.30102663 36.49845252 -45.625 31.25 C-45.2741333 30.56043213 -44.9232666 29.87086426 -44.56176758 29.16040039 C-36.79538717 14.63772281 -23.7365335 4.21253694 -7.94921875 -0.62890625 C-5.16197769 -1.15954333 -2.75275879 -0.5630643 0 0 Z " fill="#17191B" transform="translate(326,33)"/>
<path d="M0 0 C0 0.33 0 0.66 0 1 C-0.72703125 1.14695313 -1.4540625 1.29390625 -2.203125 1.4453125 C-17.3606637 4.8266096 -29.69371566 12.02585124 -38.6953125 24.91796875 C-43.50960838 32.60066248 -46.12751277 40.13993848 -48 49 C-48.66 48.34 -49.32 47.68 -50 47 C-49.73310392 41.07744889 -48.30102663 36.49845252 -45.625 31.25 C-45.2741333 30.56043213 -44.9232666 29.87086426 -44.56176758 29.16040039 C-36.79538717 14.63772281 -23.7365335 4.21253694 -7.94921875 -0.62890625 C-5.16197769 -1.15954333 -2.75275879 -0.5630643 0 0 Z " fill="#17191B" transform="translate(84,33)"/>
<path d="M0 0 C3.1875 2.1875 3.1875 2.1875 5.1875 5.1875 C5.63206411 9.78132919 5.84338803 12.07006113 3.5 16.0625 C-0.58390326 19.81527597 -4.24670892 20.6552147 -9.81640625 20.5078125 C-13.91077333 19.85079078 -16.7825362 17.59199609 -19.1875 14.3125 C-20.06401896 11.33233554 -20.24672592 9.28911374 -19.8125 6.1875 C-14.71525696 -1.17518439 -8.55152743 -4.64989304 0 0 Z M-16.6171875 4.30078125 C-18.02388663 6.52115929 -18.22882596 7.70509598 -18.0625 10.3125 C-17.38188041 13.20098315 -16.70062515 14.32310588 -14.75 16.6875 C-11.02445833 18.58990426 -7.87004298 18.99583864 -3.8125 18.1875 C0.44416699 15.94587575 0.44416699 15.94587575 3.1875 12.1875 C3.7094861 8.27260422 3.51738315 6.66636264 1.25 3.375 C-5.03113362 -1.11152402 -11.01251105 -1.29086107 -16.6171875 4.30078125 Z " fill="#1B1E20" transform="translate(340.8125,80.8125)"/>
<path d="M0 0 C3.1875 2.1875 3.1875 2.1875 5.1875 5.1875 C5.63206411 9.78132919 5.84338803 12.07006113 3.5 16.0625 C-0.58390326 19.81527597 -4.24670892 20.6552147 -9.81640625 20.5078125 C-13.91077333 19.85079078 -16.7825362 17.59199609 -19.1875 14.3125 C-20.06401896 11.33233554 -20.24672592 9.28911374 -19.8125 6.1875 C-14.71525696 -1.17518439 -8.55152743 -4.64989304 0 0 Z M-16.6171875 4.30078125 C-18.02388663 6.52115929 -18.22882596 7.70509598 -18.0625 10.3125 C-17.38188041 13.20098315 -16.70062515 14.32310588 -14.75 16.6875 C-11.02445833 18.58990426 -7.87004298 18.99583864 -3.8125 18.1875 C0.44416699 15.94587575 0.44416699 15.94587575 3.1875 12.1875 C3.7094861 8.27260422 3.51738315 6.66636264 1.25 3.375 C-5.03113362 -1.11152402 -11.01251105 -1.29086107 -16.6171875 4.30078125 Z " fill="#1B1E20" transform="translate(98.8125,80.8125)"/>
<path d="M0 0 C8.05276772 3.13454639 13.92512579 7.93537009 20 14 C20.65097656 14.639375 21.30195313 15.27875 21.97265625 15.9375 C29.00737006 23.35873655 33.71090913 32.84840939 35 43 C34.34 43.99 33.68 44.98 33 46 C32.85304688 45.34515625 32.70609375 44.6903125 32.5546875 44.015625 C28.6480931 28.11982708 21.08059742 15.84034444 7.296875 6.9453125 C3.66850074 4.80439973 0.09311263 3.14042886 -3.87890625 1.75390625 C-6.02308599 0.99179448 -7.98606829 0.05491661 -10 -1 C-6.63373258 -2.68313371 -3.39419234 -1.12950548 0 0 Z " fill="#141618" transform="translate(354,35)"/>
<path d="M0 0 C8.05276772 3.13454639 13.92512579 7.93537009 20 14 C20.65097656 14.639375 21.30195313 15.27875 21.97265625 15.9375 C29.00737006 23.35873655 33.71090913 32.84840939 35 43 C34.34 43.99 33.68 44.98 33 46 C32.85304687 45.34515625 32.70609375 44.6903125 32.5546875 44.015625 C28.6480931 28.11982708 21.08059742 15.84034444 7.296875 6.9453125 C3.66850074 4.80439973 0.09311263 3.14042886 -3.87890625 1.75390625 C-6.02308599 0.99179448 -7.98606829 0.05491661 -10 -1 C-6.63373258 -2.68313371 -3.39419234 -1.12950548 0 0 Z " fill="#141618" transform="translate(112,35)"/>
<path d="M0 0 C0.66 0 1.32 0 2 0 C3.1490357 1.44458819 4.24309715 2.93300819 5.3125 4.4375 C13.20909897 14.5820359 24.41949257 20.97741592 36.9375 23.6875 C38.08089844 23.93886719 39.22429687 24.19023437 40.40234375 24.44921875 C41.25957031 24.63097656 42.11679687 24.81273437 43 25 C43 25.66 43 26.32 43 27 C31.1764385 26.71225846 21.36281077 21.98940365 12 15 C10.948125 14.21625 9.89625 13.4325 8.8125 12.625 C5.3902394 9.4308901 2.47775815 5.98022852 0 2 C0 1.34 0 0.68 0 0 Z " fill="#1B1D1F" transform="translate(285,121)"/>
<path d="M0 0 C0.66 0 1.32 0 2 0 C3.1490357 1.44458819 4.24309715 2.93300819 5.3125 4.4375 C13.20909897 14.5820359 24.41949257 20.97741592 36.9375 23.6875 C38.08089844 23.93886719 39.22429687 24.19023437 40.40234375 24.44921875 C41.25957031 24.63097656 42.11679688 24.81273437 43 25 C43 25.66 43 26.32 43 27 C31.1764385 26.71225846 21.36281077 21.98940365 12 15 C10.948125 14.21625 9.89625 13.4325 8.8125 12.625 C5.3902394 9.4308901 2.47775815 5.98022852 0 2 C0 1.34 0 0.68 0 0 Z " fill="#1B1D1F" transform="translate(43,121)"/>
<path d="M0 0 C7.56854336 2.54383654 13.5446385 6.36450243 19.34765625 11.7890625 C18.68765625 12.4490625 18.02765625 13.1090625 17.34765625 13.7890625 C16.8371875 13.34175781 16.32671875 12.89445312 15.80078125 12.43359375 C10.53966639 8.05865958 5.43091594 5.27716066 -0.953125 2.83203125 C-3.27413215 1.93520215 -5.45162592 0.94430868 -7.65234375 -0.2109375 C-4.85760664 -1.60830605 -2.91174758 -0.79267175 0 0 Z " fill="#1E2124" transform="translate(351.65234375,34.2109375)"/>
<path d="M0 0 C7.56854336 2.54383654 13.5446385 6.36450243 19.34765625 11.7890625 C18.68765625 12.4490625 18.02765625 13.1090625 17.34765625 13.7890625 C16.8371875 13.34175781 16.32671875 12.89445312 15.80078125 12.43359375 C10.53966639 8.05865958 5.43091594 5.27716066 -0.953125 2.83203125 C-3.27413215 1.93520215 -5.45162592 0.94430868 -7.65234375 -0.2109375 C-4.85760664 -1.60830605 -2.91174758 -0.79267175 0 0 Z " fill="#1E2124" transform="translate(109.65234375,34.2109375)"/>
<path d="M0 0 C3.58848221 -0.51264032 4.80512535 -0.13857753 7.8125 2 C10.27121929 5.37195788 10.69043053 7.00955143 10.4296875 11.06640625 C9.7461763 14.14220664 8.25636877 15.87256659 6 18 C5.01 18.33 4.02 18.66 3 19 C2.34 18.34 1.68 17.68 1 17 C1.804375 16.54625 2.60875 16.0925 3.4375 15.625 C6.08856572 14.25274335 6.08856572 14.25274335 7 12 C7.14375422 8.62177584 7.07536348 6.22609045 6 3 C2.99152582 1.77479736 2.99152582 1.77479736 0 1 C0 0.67 0 0.34 0 0 Z " fill="#1B1D20" transform="translate(336,81)"/>
<path d="M0 0 C3.58848221 -0.51264032 4.80512535 -0.13857753 7.8125 2 C10.27121929 5.37195788 10.69043053 7.00955143 10.4296875 11.06640625 C9.7461763 14.14220664 8.25636877 15.87256659 6 18 C5.01 18.33 4.02 18.66 3 19 C2.34 18.34 1.68 17.68 1 17 C1.804375 16.54625 2.60875 16.0925 3.4375 15.625 C6.08856572 14.25274335 6.08856572 14.25274335 7 12 C7.14375422 8.62177584 7.07536348 6.22609045 6 3 C2.99152582 1.77479736 2.99152582 1.77479736 0 1 C0 0.67 0 0.34 0 0 Z " fill="#1B1D20" transform="translate(94,81)"/>
<path d="M0 0 C0.66 0.66 1.32 1.32 2 2 C1.828125 5.08203125 1.828125 5.08203125 1.25 8.8125 C1.06953125 10.03582031 0.8890625 11.25914063 0.703125 12.51953125 C0.08516875 15.57841467 -0.72523198 18.16418132 -2 21 C-2.99 20.67 -3.98 20.34 -5 20 C-4.72285156 18.97519531 -4.44570313 17.95039062 -4.16015625 16.89453125 C-3.79418709 15.53387669 -3.42830635 14.17319834 -3.0625 12.8125 C-2.88009766 12.13896484 -2.69769531 11.46542969 -2.50976562 10.77148438 C-1.5511642 7.19851542 -0.67116718 3.63843262 0 0 Z " fill="#25282B" transform="translate(388,92)"/>
<path d="M0 0 C0.66 0.66 1.32 1.32 2 2 C1.828125 5.08203125 1.828125 5.08203125 1.25 8.8125 C1.06953125 10.03582031 0.8890625 11.25914063 0.703125 12.51953125 C0.08516875 15.57841467 -0.72523198 18.16418132 -2 21 C-2.99 20.67 -3.98 20.34 -5 20 C-4.72285156 18.97519531 -4.44570312 17.95039062 -4.16015625 16.89453125 C-3.79418709 15.53387669 -3.42830635 14.17319834 -3.0625 12.8125 C-2.88009766 12.13896484 -2.69769531 11.46542969 -2.50976562 10.77148438 C-1.5511642 7.19851542 -0.67116718 3.63843262 0 0 Z " fill="#25282B" transform="translate(146,92)"/>
<path d="M0 0 C2 2 4 4 6 6 C7.68183948 6.23287008 9.3712416 6.41264166 11.0625 6.5625 C11.98160156 6.64628906 12.90070313 6.73007813 13.84765625 6.81640625 C14.91306641 6.90728516 14.91306641 6.90728516 16 7 C14 9 14 9 10.25 9.375 C5.8810468 9.25541187 3.25342484 8.00941797 0 5 C-0.375 2.25 -0.375 2.25 0 0 Z " fill="#131517" transform="translate(323,92)"/>
<path d="M0 0 C2 2 4 4 6 6 C7.68183948 6.23287008 9.3712416 6.41264166 11.0625 6.5625 C11.98160156 6.64628906 12.90070313 6.73007813 13.84765625 6.81640625 C14.91306641 6.90728516 14.91306641 6.90728516 16 7 C14 9 14 9 10.25 9.375 C5.8810468 9.25541187 3.25342484 8.00941797 0 5 C-0.375 2.25 -0.375 2.25 0 0 Z " fill="#131517" transform="translate(81,92)"/>
<path d="M0 0 C0.66 0 1.32 0 2 0 C4.08989546 5.31329355 5.6112798 9.28728072 4 15 C3.67 15 3.34 15 3 15 C2.49363393 13.25183142 1.99515381 11.50137737 1.5 9.75 C1.2215625 8.77546875 0.943125 7.8009375 0.65625 6.796875 C0 4 0 4 0 0 Z " fill="#202325" transform="translate(384,66)"/>
<path d="M0 0 C0.66 0 1.32 0 2 0 C4.08989546 5.31329355 5.6112798 9.28728072 4 15 C3.67 15 3.34 15 3 15 C2.49363393 13.25183142 1.99515381 11.50137737 1.5 9.75 C1.2215625 8.77546875 0.943125 7.8009375 0.65625 6.796875 C0 4 0 4 0 0 Z " fill="#202325" transform="translate(142,66)"/>
<path d="M0 0 C1.50433594 0.29197266 1.50433594 0.29197266 3.0390625 0.58984375 C4.19535156 0.82380859 4.19535156 0.82380859 5.375 1.0625 C5.375 1.7225 5.375 2.3825 5.375 3.0625 C3.77004433 2.94807539 2.16601881 2.82055306 0.5625 2.6875 C-0.33082031 2.61789063 -1.22414063 2.54828125 -2.14453125 2.4765625 C-4.625 2.0625 -4.625 2.0625 -7.625 0.0625 C-4.81015955 -1.34492022 -3.05563887 -0.60402164 0 0 Z " fill="#25282B" transform="translate(322.625,144.9375)"/>
<path d="M0 0 C1.50433594 0.29197266 1.50433594 0.29197266 3.0390625 0.58984375 C4.19535156 0.82380859 4.19535156 0.82380859 5.375 1.0625 C5.375 1.7225 5.375 2.3825 5.375 3.0625 C3.77004433 2.94807539 2.16601881 2.82055306 0.5625 2.6875 C-0.33082031 2.61789063 -1.22414063 2.54828125 -2.14453125 2.4765625 C-4.625 2.0625 -4.625 2.0625 -7.625 0.0625 C-4.81015955 -1.34492022 -3.05563887 -0.60402164 0 0 Z " fill="#25282B" transform="translate(80.625,144.9375)"/>
<path d="M0 0 C5.06998019 0.65419099 9.41990777 2.8546409 14 5 C14 5.33 14 5.66 14 6 C8.29290936 5.53411505 4.84060277 4.06242216 0 1 C0 0.67 0 0.34 0 0 Z " fill="#141618" transform="translate(303,139)"/>
<path d="M0 0 C5.06998019 0.65419099 9.41990777 2.8546409 14 5 C14 5.33 14 5.66 14 6 C8.29290936 5.53411505 4.84060277 4.06242216 0 1 C0 0.67 0 0.34 0 0 Z " fill="#141618" transform="translate(61,139)"/>
<path d="M0 0 C0 0.33 0 0.66 0 1 C-1.78871178 1.38885039 -3.58112874 1.76069196 -5.375 2.125 C-6.37273437 2.33382812 -7.37046875 2.54265625 -8.3984375 2.7578125 C-9.25695312 2.83773437 -10.11546875 2.91765625 -11 3 C-11.66 2.34 -12.32 1.68 -13 1 C-8.20862412 -0.6290678 -4.94367454 -1.20577428 0 0 Z " fill="#24282B" transform="translate(326,33)"/>
<path d="M0 0 C0 0.33 0 0.66 0 1 C-1.78871178 1.38885039 -3.58112874 1.76069196 -5.375 2.125 C-6.37273437 2.33382812 -7.37046875 2.54265625 -8.3984375 2.7578125 C-9.25695312 2.83773437 -10.11546875 2.91765625 -11 3 C-11.66 2.34 -12.32 1.68 -13 1 C-8.20862412 -0.6290678 -4.94367454 -1.20577428 0 0 Z " fill="#24282B" transform="translate(84,33)"/>
<path d="M0 0 C-0.33 0.66 -0.66 1.32 -1 2 C-3.64860427 2.59355614 -6.29197322 2.74209269 -9 3 C-8.67 2.01 -8.34 1.02 -8 0 C-5.04215769 -1.22393475 -3.00272755 -0.96516243 0 0 Z " fill="#131416" transform="translate(361,173)"/>
<path d="M0 0 C-0.33 0.66 -0.66 1.32 -1 2 C-3.64860427 2.59355614 -6.29197322 2.74209269 -9 3 C-8.67 2.01 -8.34 1.02 -8 0 C-5.04215769 -1.22393475 -3.00272755 -0.96516243 0 0 Z " fill="#131416" transform="translate(119,173)"/>
<path d="M0 0 C0.99 0.33 1.98 0.66 3 1 C-0.625 5.875 -0.625 5.875 -4 7 C-4.66 6.34 -5.32 5.68 -6 5 C-5.195625 4.54625 -4.39125 4.0925 -3.5625 3.625 C-0.91143428 2.25274335 -0.91143428 2.25274335 0 0 Z " fill="#24282B" transform="translate(343,93)"/>
<path d="M0 0 C0.99 0.33 1.98 0.66 3 1 C-0.625 5.875 -0.625 5.875 -4 7 C-4.66 6.34 -5.32 5.68 -6 5 C-5.195625 4.54625 -4.39125 4.0925 -3.5625 3.625 C-0.91143428 2.25274335 -0.91143428 2.25274335 0 0 Z " fill="#24282B" transform="translate(101,93)"/>
<path d="M0 0 C0 0.66 0 1.32 0 2 C-2.64 2.99 -5.28 3.98 -8 5 C-7.1875 3.0625 -7.1875 3.0625 -6 1 C-3 0 -3 0 0 0 Z " fill="#030304" transform="translate(306,4)"/>
<path d="M0 0 C0 0.66 0 1.32 0 2 C-2.64 2.99 -5.28 3.98 -8 5 C-7.1875 3.0625 -7.1875 3.0625 -6 1 C-3 0 -3 0 0 0 Z " fill="#030304" transform="translate(64,4)"/>
<path d="M0 0 C0.66 0.66 1.32 1.32 2 2 C1.96712417 4.72869407 1.43602229 7.2966618 1 10 C0.34 9.34 -0.32 8.68 -1 8 C-0.96712417 5.27130593 -0.43602229 2.7033382 0 0 Z " fill="#2C3033" transform="translate(277,72)"/>
<path d="M0 0 C0.66 0.66 1.32 1.32 2 2 C1.96712417 4.72869407 1.43602229 7.2966618 1 10 C0.34 9.34 -0.32 8.68 -1 8 C-0.96712417 5.27130593 -0.43602229 2.7033382 0 0 Z " fill="#2C3033" transform="translate(35,72)"/>
</svg>
